<svg xmlns="http://www.w3.org/2000/svg" enable-background="new 0 0 1024 1024" viewBox="0 0 1024 1024" id="in-stock"><path d="M736,855.5c-26.8,0-52.4-6.14-76.11-18.25c-22.6-11.55-42.63-28.4-57.9-48.75c-6.15-8.18-11.58-16.99-16.14-26.17
			C574.34,739.11,568.5,714.1,568.5,688c0-4.62,0.19-9.26,0.57-13.79c0.07-0.91,0.16-1.88,0.25-2.85c0-0.01,0.01-0.09,0.01-0.1
			c4.08-41.13,23.23-79.18,53.92-107.13C654.13,536,694.18,520.5,736,520.5s81.87,15.5,112.76,43.63
			c30.68,27.95,49.83,65.99,53.92,107.13c0.1,1.02,0.19,2.02,0.27,3.02c0.37,4.45,0.56,9.09,0.56,13.72
			c0,26.1-5.84,51.11-17.35,74.33c-4.56,9.18-9.99,17.99-16.14,26.17c-15.27,20.34-35.3,37.2-57.9,48.75
			C788.4,849.36,762.8,855.5,736,855.5z M736,535.5c-78.74,0-143.98,59-151.75,137.24c-0.09,0.91-0.17,1.77-0.23,2.64
			c-0.35,4.19-0.52,8.41-0.52,12.62c0,23.77,5.31,46.54,15.79,67.67c4.15,8.36,9.09,16.37,14.7,23.82
			C643.1,818.26,687.57,840.5,736,840.5s92.9-22.24,122.01-61c5.6-7.46,10.55-15.47,14.7-23.83c10.47-21.13,15.79-43.89,15.79-67.66
			c0-4.22-0.17-8.44-0.51-12.55c-0.07-0.97-0.16-1.85-0.24-2.73C879.98,594.5,814.74,535.5,736,535.5z"></path><path d="M720 743.5c-1.92 0-3.84-.73-5.3-2.2l-48-48 10.61-10.61 42.7 42.7 90.7-90.7 10.61 10.61-96 96C723.84 742.77 721.92 743.5 720 743.5zM832 279.5H128c-4.14 0-7.5-3.36-7.5-7.5v-65.9c0-20.73 16.87-37.6 37.6-37.6h643.8c20.73 0 37.6 16.87 37.6 37.6V272C839.5 276.14 836.14 279.5 832 279.5zM135.5 264.5h689v-58.4c0-12.46-10.14-22.6-22.6-22.6H158.1c-12.46 0-22.6 10.14-22.6 22.6V264.5z"></path><path d="M607.99,791.5H184.73c-17.77,0-32.23-14.46-32.23-32.23V272c0-4.14,3.36-7.5,7.5-7.5h640c4.14,0,7.5,3.36,7.5,7.5v269.32
			c0,2.53-1.28,4.89-3.4,6.28c-2.12,1.38-4.79,1.61-7.11,0.59c-14.01-6.13-28.84-10.09-44.09-11.77c-5.58-0.61-11.27-0.92-16.9-0.92
			c-78.74,0-143.98,59-151.75,137.24c-0.09,0.89-0.17,1.76-0.23,2.64c-0.35,4.19-0.52,8.41-0.52,12.62c0,11.31,1.24,22.58,3.7,33.51
			c2.09,9.39,5.12,18.64,8.98,27.49c0.95,2.18,1.99,4.42,3.11,6.67c4.15,8.35,9.09,16.37,14.7,23.83c1.71,2.27,1.98,5.31,0.71,7.86
			C613.43,789.89,610.83,791.5,607.99,791.5z M167.5,279.5v479.77c0,9.5,7.73,17.23,17.23,17.23h409.03
			c-2.86-4.59-5.51-9.33-7.91-14.16c-1.23-2.48-2.38-4.95-3.42-7.35c-4.25-9.72-7.57-19.89-9.87-30.21
			c-2.69-11.99-4.06-24.37-4.06-36.78c0-4.62,0.19-9.26,0.57-13.79c0.07-0.92,0.16-1.9,0.25-2.87
			c4.09-41.21,23.24-79.26,53.92-107.2C654.13,536,694.18,520.5,736,520.5c6.18,0,12.41,0.34,18.54,1.01
			c13,1.43,25.72,4.37,37.96,8.76V279.5H167.5z"></path><path d="M568,391.5H392c-17.37,0-31.5-14.13-31.5-31.5s14.13-31.5,31.5-31.5h176c17.37,0,31.5,14.13,31.5,31.5
			S585.37,391.5,568,391.5z M392,343.5c-9.1,0-16.5,7.4-16.5,16.5s7.4,16.5,16.5,16.5h176c9.1,0,16.5-7.4,16.5-16.5
			s-7.4-16.5-16.5-16.5H392z"></path><rect width="112" height="15" x="256" y="664.5"></rect></svg>